<mxfile host="app.diagrams.net" modified="2024-06-28T20:41:47.327Z" agent="Mozilla/5.0 (Macintosh; Intel Mac OS X 10_15_7) AppleWebKit/537.36 (KHTML, like Gecko) Chrome/126.0.0.0 Safari/537.36" version="24.6.4" etag="JgKLWNrcZ3tIuMQNCx1K" type="github">
  <diagram name="Seite-1" id="9lOvnFHUZoIXRHlFwNRN">
    <mxGraphModel>
      <root>
        <mxCell id="0" />
        <mxCell id="1" parent="0" />
      </root>
    </mxGraphModel>
  </diagram>
</mxfile>
